<svg xmlns="http://www.w3.org/2000/svg" viewBox="0 0 283.48 309.51"><defs><style>.cls-1,.cls-2,.cls-3,.cls-7{stroke:#000;}.cls-1,.cls-2,.cls-3,.cls-4,.cls-5,.cls-6,.cls-7{stroke-miterlimit:10;}.cls-1{stroke-width:6px;}.cls-2,.cls-6{fill:none;}.cls-2,.cls-3{stroke-width:0.25px;}.cls-4,.cls-5{fill:#4d4d4d;}.cls-4{stroke:#4d4d4d;}.cls-5{stroke:#ccc;}.cls-6{stroke:#fff;}.cls-7{font-size:42.73px;font-family:Europa-Light, Europa-Light;}</style></defs><title>elite_souvenir_logo_grey</title><g id="Layer_1" data-name="Layer 1"><path d="M78,127.1c1.48-3.15,2.27-5.89,6-5.39,1.94.26,1.86-1.23,1.86-2.56,0-5.51.08-11,0-16.53,0-2.17.6-2.93,2.84-2.9q12.69.17,25.39,0c2.17,0,2.94.61,2.92,2.84s-1,2.83-3,2.81c-6.4-.09-12.8.07-19.19-.08-2.76-.07-3.67,1-3.53,3.63a84.11,84.11,0,0,1,0,9.44c-.15,2.54.63,3.58,3.3,3.43,3.43-.19,6.89,0,10.33-.08,2-.06,3.08.28,3.07,2.68s-1,3-3.21,2.94c-3.44-.12-6.89,0-10.33-.06-2.28-.07-3.15.81-3.14,3.11.07,9.94.1,19.88,0,29.82,0,2.51,1.06,3,3.19,2.93,6.59-.07,13.19,0,19.78-.06,2,0,2.82.51,2.79,2.65s-.57,3-2.85,3c-8.36-.1-16.73-.11-25.1,0-2.46,0-3.22-.8-3.2-3.23.1-11.42,0-22.83,0-34.25,0-3.92,0-3.91-3.9-4C80.81,127.28,79.68,127.19,78,127.1Z" transform="translate(-13.26 -15.5)"/><path d="M196.73,147.71c.16-8.53,5.75-17.14,13.5-20.4a21.61,21.61,0,0,1,23.88,5c2.8,2.93,2.71,3.4-.28,6q-11.25,10-22.39,20.06c-2.33,2.11-2.16,2.82.66,4.13a15.33,15.33,0,0,0,19.12-5.15c1.7-2.39,2.94-1.49,4.57-.53,2.09,1.23,1.1,2.55.05,3.86-5.39,6.8-12.48,10.16-21,8.52s-14.21-6.87-16.76-15.25C197.46,152,197.17,149.81,196.73,147.71Zm8.89,8.63,22.91-20.71c-3.6-5.19-14.08-5.87-20.2-.78S200.43,150.34,205.62,156.34Z" transform="translate(-13.26 -15.5)"/><path d="M181.51,137.05q0,13.88,0,27.76c0,1.93.51,4-2.75,3.93s-2.63-2.24-2.63-4.1q0-27.62,0-55.23c0-4.07,0-4.07-4.15-4.08-2.56,0-5.12-.05-7.68,0-2.25,0-2.14-1.45-2.18-3s.2-2.62,2.2-2.61q14,.1,28.06,0c2.06,0,2.12,1.18,2.11,2.69s-.07,3-2.26,2.92c-2.56-.07-5.13.11-7.68,0-2.37-.15-3.06.84-3,3.1C181.56,118,181.51,127.5,181.51,137.05Z" transform="translate(-13.26 -15.5)"/><path d="M122,134.24q0-15.35,0-30.7c0-1.92-.53-3.92,2.76-3.86s2.64,2.19,2.64,4c0,18.6.07,37.2,0,55.8,0,2.85.82,3.83,3.67,3.68,4-.21,8.07,0,12.1-.08,2,0,2.88.62,2.83,2.71s-.73,2.9-2.78,2.89c-6.2,0-12.4-.09-18.6,0-2.49,0-2.61-1.32-2.6-3.19C122.07,155.1,122,144.67,122,134.24Z" transform="translate(-13.26 -15.5)"/><path d="M151.79,147.82c0-5.91,0-11.81,0-17.72,0-2,.15-3.34,2.79-3.27,2.42.06,2.67,1.21,2.66,3.15,0,11.81-.07,23.62,0,35.43,0,2.15-.62,3-2.85,2.95s-2.65-.86-2.62-2.83C151.85,159.64,151.79,153.73,151.79,147.82Z" transform="translate(-13.26 -15.5)"/><path d="M157.16,114c.37,2.21-.84,2.59-2.74,2.64-2.12.06-2.71-.77-2.67-2.77s.44-2.91,2.63-2.9S157.46,111.83,157.16,114Z" transform="translate(-13.26 -15.5)"/><rect class="cls-1" x="135.46" y="3" width="17.1" height="69.33" rx="8.55" ry="8.55"/><path class="cls-2" d="M87.09,238.15" transform="translate(-13.26 -15.5)"/><path class="cls-2" d="M110.27,261.3" transform="translate(-13.26 -15.5)"/><path class="cls-2" d="M100.11,273.8" transform="translate(-13.26 -15.5)"/><path class="cls-3" d="M151.6,309.79a31.68,31.68,0,0,1-4.37-8c-.25.66-.49,1.26-.68,1.63a31.05,31.05,0,0,0-1.68,4.32A34.81,34.81,0,0,0,151.6,309.79Z" transform="translate(-13.26 -15.5)"/><path class="cls-3" d="M193.88,314.73a75.15,75.15,0,0,0,9.88-.8c-.25-1.1-.51-2.2-.77-3.26-1-4.11-2-7.56-2-7.56l-.24-.6c-1.39,3.72-4.72,8.44-8,12.22Z" transform="translate(-13.26 -15.5)"/><path class="cls-4" d="M172.74,312.2c7,1.1,13.61,2.56,20.72,2.53,4.11-4.28,8-9.94,6.95-14.61l-.42,0c-1.84-2-4.73-10.7-3.8-13.25-3-5.93-6-5.36-4.46-12.82,1.07-5.34,4.55-9.86,7.44-14.69-20.42,6.33-28.05,6.42-47.61.26,4,8.64,7.89,17.56,6.65,19.21a74.5,74.5,0,0,0-4.49,6.28c1.18,2-3,12-5.58,12.69-.29.08-.26,2.15-.92,3.93a31.68,31.68,0,0,0,4.37,8C158.51,311.22,166,311.13,172.74,312.2Z" transform="translate(-13.26 -15.5)"/><path class="cls-3" d="M153.74,285.17h0a23.74,23.74,0,0,0-3.89-3.29c-1.28-.58-5.51-.5-6.55-1.17l-6.59,8.12a11.52,11.52,0,0,0,3.27,4.42,60.2,60.2,0,0,0,6.88,4.49,5.48,5.48,0,0,0,2.09,0s4.64-4.91,5.39-7.18c.4-1.21-.34-5.15-.32-5.1Zm53.55-73c30.22,1.2,45.27-14.49,41-23.94-5.69-12.57-18.26-7.6-19.75-4.79-1.18,2.24.87,5.27,2.12,6.8-.33-.74-.37-2,.87-3.81,2.85-4.28,11.27,2.63,9,5.39-3,3.59-9.4,6.89-13.72,5.54-5.49-1.71-9.49-7.18-15-9.13-5.09-1.8-16.27-.63-18.55-2.69-1.89-1.71-4.3-6.65-6.58-7.78-5.1-2.51-18.2-3.43-22.74,0-3.52,2.66-9.28,10.47-8.68,21.84.21,4,6.28,10.47,6.45,11.79.19,1.48-1.39,3-1.36,4.07.13,4.37,1.13,5.89,1.2,5.39.6-4.79,1.2-6,4.21-5.64.8.1,1.21,1,1.78,1.45,2.69,2.09.47,6.49-.9,8.08-3.21,3.7-12.57,3.59-17.35,4.19-3.42.42-9.28,3.25-11.37,6-1,1.24-2.32,4.46-3.59,5.39-6.58,4.79-23.5,18.43-23.64,21.84-.07,1.66,3.89,6.88,3.89,6.88h.3l13.4-3.34c-.47-.39-3.71-3.14-2.93-3.54,15-7.78,18-14.61,19.75-15,6-1.2,3.38,5.79,6,11.37l.53,1.14c19.55,6.15,27.19,6.06,47.61-.26a29.12,29.12,0,0,0,3.93-9.25c.6-3,3.59-1.8,3.59-1.8a7.84,7.84,0,0,1,3,2.39c4.79,6.58,15.56,12,16.16,12.57s-4.13,4.52-4.13,4.52l1.07-.67c6.74-.19,10.22,1.84,11.92,3.26,0-.08,5.2-5.2,5.2-7.79,0-3.4-19.24-17.92-21.24-20-2.38-2.43-4.35-8.07-9-10.77-7.18-4.19-16.16-2.39-22.14-5.39-.8-.4-2.39-6-2.39-6A31.53,31.53,0,0,1,207.29,212.15Zm.53,70.29c-1.79-.59-4.17-1.14-7.71,1.22-.57.38-2.75,2.29-3.57,3l0,0-.3.26,0,0c-1,2.68,0,6.63,0,6.63s2.22,5.48,4,6.86c.89.13,3.52-.61,11.23-6.86a34.6,34.6,0,0,0,3-4.19h1.2l.05,0C214.06,288.85,209.65,284.37,207.82,282.44Z" transform="translate(-13.26 -15.5)"/><path class="cls-5" d="M235.42,272c-5.93,5.64-15.34,13.68-19.69,17.31-1.66-.45-6.07-4.94-7.91-6.86l.07,0v-1.2l13.76-13.76,1.13-.34a18.74,18.74,0,0,1,12.67,4C235.45,271.42,235.75,271.67,235.42,272Z" transform="translate(-13.26 -15.5)"/><path class="cls-5" d="M143.3,280.69l-6.59,8.12,0-.07h-.6S114.53,269.6,114.24,269c0-.1,12.25-5.7,14.66-3.29.3.3,11.08,12.62,14.36,15Z" transform="translate(-13.26 -15.5)"/><g id="Circuit"><polyline class="cls-6" points="156.38 258.13 155.13 259.38 155.13 267.2 154.19 268.14 151.38 268.14 150.44 269.39 150.44 272.51 139.81 283.14 139.81 285.02 138.56 285.02 137.94 284.08"/><polyline class="cls-6" points="161.7 253.75 162.01 266.26 163.26 267.51 163.26 273.76 155.76 281.27 155.76 285.96 146.06 295.96 143.72 295.96"/><path class="cls-6" d="M175,269.25a.94.94,0,1,0-.94-.94.94.94,0,0,0,.94.94" transform="translate(-13.26 -15.5)"/><polyline class="cls-6" points="154.82 273.14 141.38 286.58 137.15 286.58"/><polyline class="cls-6" points="146.06 272.51 144.19 274.39 144.19 276.58 139.81 280.96 136.69 280.96"/><polyline class="cls-6" points="151.07 262.82 150.44 263.45 150.44 267.51 149.5 268.45 146.06 268.45 142.31 272.2 142.31 276.27 139.81 278.77 138.56 278.77"/><polyline class="cls-6" points="142 268.45 151.38 258.76 154.19 258.76 155.45 257.5 155.45 249.06 156.07 248.44"/><polyline class="cls-6" points="146.38 261.57 150.44 257.5 150.44 253.75 151.07 253.44"/><polyline class="cls-6" points="140.59 291.9 143.88 291.9 152.01 284.08 152.01 279.7 159.51 272.51 159.51 255.32 157.95 254.07"/><polyline class="cls-6" points="142.47 294.4 144.19 294.4 154.19 284.71 154.19 280.96 160.76 274.08 160.76 255 159.51 253.75 159.51 249.38"/><polyline class="cls-6" points="160.76 302.69 160.76 298.78 174.52 285.02 174.52 281.27 177.33 278.14 177.33 267.67"/><polyline class="cls-6" points="179.84 268.14 179.84 269.7 180.46 270.64 179.21 273.76 179.21 278.77 176.08 281.58 176.08 292.52 174.21 294.4 172.33 294.4"/><polyline class="cls-6" points="161.7 302.53 161.7 299.72 170.77 290.96 171.71 290.96"/><polyline class="cls-6" points="162.95 303 162.95 301.28 166.08 298.15 173.27 298.15 177.33 294.4 177.33 283.14 180.46 280.33 180.46 275.95 180.62 275.8"/><polyline class="cls-6" points="155.6 292.06 154.66 290.49 158.42 285.49 163.73 285.49 163.73 288.3 159.35 293.62 159.35 302.38 156.7 302.38 156.38 301.59 155.45 300.97 152.94 300.97"/><circle class="cls-6" cx="152.01" cy="253.13" r="0.94"/><circle class="cls-6" cx="157.01" cy="257.51" r="0.94"/><circle class="cls-6" cx="151.69" cy="262.2" r="0.94"/><circle class="cls-6" cx="146.69" cy="271.89" r="0.94"/><circle class="cls-6" cx="155.45" cy="272.51" r="0.94"/><circle class="cls-6" cx="137.62" cy="283.14" r="0.94"/><circle class="cls-6" cx="157.32" cy="253.44" r="0.94"/><circle class="cls-6" cx="156.07" cy="292.84" r="0.94"/><circle class="cls-6" cx="152.01" cy="300.97" r="0.94"/><circle class="cls-6" cx="172.64" cy="290.96" r="0.94"/><circle class="cls-6" cx="171.39" cy="294.4" r="0.94"/><circle class="cls-6" cx="177.33" cy="266.89" r="0.94"/><polyline class="cls-6" points="178.27 296.59 178.27 285.02 180.46 283.14 180.46 287.52 181.09 288.46 182.02 288.46 182.02 287.37"/><polyline class="cls-6" points="182.49 280.17 181.71 280.96 183.9 283.14"/><circle class="cls-6" cx="184.52" cy="283.77" r="0.94"/><circle class="cls-6" cx="182.02" cy="286.58" r="0.94"/></g><path class="cls-1" d="M293.67,179.27A138.74,138.74,0,1,1,105.17,53.89a4.71,4.71,0,0,1,6.19,3l.12.38a4.7,4.7,0,0,1-2.77,5.8A128.33,128.33,0,0,0,26.87,182.31C26.72,258.25,89.68,316.5,165.38,310.5A128.29,128.29,0,0,0,202.54,63.42a4.69,4.69,0,0,1-2.78-5.58h0a5,5,0,0,1,6.64-3.34A138.7,138.7,0,0,1,293.67,179.27Z" transform="translate(-13.26 -15.5)"/><text class="cls-7" transform="translate(64.75 202.32)">CSI</text></g></svg>